<svg width="36" height="36" viewBox="0 0 36 36" fill="none" xmlns="http://www.w3.org/2000/svg">
<path d="M22.8855 3H13.1295C10.4452 3.00475 7.87219 4.07288 5.9737 5.97052C4.07521 7.86817 3.00595 10.4407 3 13.125V22.875C3.00029 24.5745 3.42965 26.2465 4.24829 27.7359C5.06692 29.2253 6.24833 30.4839 7.683 31.395C8.18363 31.7274 8.71629 32.0088 9.273 32.235C10.4909 32.7395 11.7962 32.9994 13.1145 33H22.8705C24.2205 33 25.557 32.73 26.8005 32.205C27.3954 31.952 27.9637 31.6405 28.497 31.275C29.8811 30.3573 31.0165 29.1114 31.8022 27.6484C32.5879 26.1854 32.9994 24.5507 33 22.89V13.14C33 10.4551 31.9352 7.87983 30.0391 5.97894C28.143 4.07805 25.5704 3.00675 22.8855 3ZM18.0075 9.87C18.7039 9.8705 19.3916 10.0253 20.021 10.3232C20.6505 10.6211 21.2061 11.0548 21.648 11.5931C22.0899 12.1313 22.4071 12.7608 22.5767 13.4363C22.7463 14.1117 22.7642 14.8163 22.629 15.4995C22.4931 16.1828 22.2074 16.8275 21.7923 17.3871C21.3773 17.9466 20.8432 18.4072 20.2287 18.7354C19.6142 19.0637 18.9345 19.2516 18.2386 19.2855C17.5427 19.3194 16.848 19.1985 16.2045 18.9315C15.3434 18.5754 14.6073 17.9719 14.0893 17.1973C13.5713 16.4227 13.2947 15.5118 13.2945 14.58C13.2985 13.3315 13.7964 12.1354 14.6795 11.2528C15.5625 10.3703 16.759 9.87316 18.0075 9.87ZM25.5105 30.315C24.6921 30.6066 23.8293 30.7538 22.9605 30.75H13.2045C11.3408 30.7454 9.53883 30.0811 8.118 28.875C8.82065 27.3456 9.90553 26.0231 11.268 25.035C13.1907 23.4628 15.598 22.6039 18.0817 22.6039C20.5655 22.6039 22.9728 23.4628 24.8955 25.035C26.262 26.0143 27.3695 27.3117 28.122 28.815C27.3375 29.49 26.88 29.862 25.893 30.1755L25.5105 30.315Z" fill="#B5446E"/>
</svg>
